<?xml version="1.0" encoding="UTF-8"?><svg xmlns="http://www.w3.org/2000/svg" xmlns:xlink="http://www.w3.org/1999/xlink" viewBox="0 0 1076.57 165.93"><defs><style>.cb{fill:url(#be);}.cc{fill:url(#t);}.cd{fill:url(#bu);}.ce{fill:url(#bq);}.cf{fill:#fff;}.cg{fill:url(#ca);}.ch{fill:url(#ap);}.ci{fill:url(#r);}.cj{fill:url(#bk);}.ck{fill:url(#ai);}.cl{fill:none;stroke:#000;stroke-miterlimit:10;}.cm{fill:url(#y);}.cn{fill:url(#l);}.co{fill:url(#bl);}.cp{fill:url(#bp);}.cq{fill:url(#af);}.cr{fill:url(#br);}.cs{fill:url(#aq);}.ct{fill:url(#u);}.cu{fill:url(#ah);}.cv{fill:url(#b`);}.cw{fill:url(#v);}.cx{fill:url(#av);}.cy{fill:url(#a`);}.d`{fill:url(#as);}.da{fill:url(#m);}.db{fill:url(#bh);}.dc{fill:url(#aw);}.dd{fill:url(#bm);}.de{fill:url(#ba);}.df{fill:url(#ao);}.dg{fill:#161414;}.dh{fill:#010102;}.di{fill:url(#bj);}.dj{fill:url(#bd);}.dk{fill:url(#f);}.dl{fill:url(#bg);}.dm{fill:url(#ae);}.dn{fill:url(#bi);}.do{fill:url(#bo);}.dp{fill:#fcfafa;}.dq{fill:url(#p);}.dr{fill:url(#g);}.ds{fill:url(#bb);}.dt{fill:url(#ad);}.du{fill:url(#ab);}.dv{fill:url(#ak);}.dw{fill:url(#au);}.dx{fill:url(#bf);}.dy{fill:url(#c`);}.e`{fill:url(#i);}.ea{fill:url(#bc);}.eb{fill:url(#aj);}.ec{fill:url(#ar);}.ed{fill:url(#bv);}.ee{fill:url(#h);}.ef{fill:url(#d);}.eg{fill:url(#e);}.eh{fill:url(#by);}.ei{fill:url(#am);}.ej{fill:url(#bw);}.ek{fill:url(#x);}.el{fill:url(#at);}.em{fill:url(#aa);}.en{fill:url(#s);}.eo{fill:url(#bx);}.ep{fill:url(#bn);}.eq{fill:url(#n);}.er{fill:url(#ac);}.es{fill:url(#w);}.et{font-family:Poppins-Medium, Poppins;font-size:41.45px;letter-spacing:.7em;}.eu{fill:url(#al);}.ev{fill:url(#j);}.ew{fill:url(#o);}.ex{fill:url(#an);}.ey{fill:url(#bt);}.f`{fill:url(#ax);}.fa{fill:url(#q);}.fb{fill:url(#ag);}.fc{fill:url(#ay);}.fd{fill:url(#k);}.fe{fill:url(#bs);}</style><linearGradient id="d" x1="396.27" y1="-357.5" x2="424.48" y2="-357.5" gradientTransform="translate(69.21 411.4) rotate(-.36)" gradientUnits="userSpaceOnUse"><stop offset="0" stop-color="#e10d18"/><stop offset="1" stop-color="#000"/></linearGradient><linearGradient id="e" x1="-843.03" y1="-1167.22" x2="-843.03" y2="-1168.06" gradientTransform="translate(-607.07 -797.14) rotate(-90.36) scale(1 -1)" gradientUnits="userSpaceOnUse"><stop offset="0" stop-color="#de083f"/><stop offset="1" stop-color="#4a027d"/></linearGradient><linearGradient id="f" x1="-844.16" y1="-1165.07" x2="-844.16" y2="-1165.64" xlink:href="#e"/><linearGradient id="g" x1="-842.31" y1="-1169.68" x2="-842.31" y2="-1170.48" xlink:href="#e"/><linearGradient id="h" x1="-868.21" y1="-1169.68" x2="-868.21" y2="-1170.48" xlink:href="#e"/><linearGradient id="i" x1="-866.36" y1="-1165.07" x2="-866.36" y2="-1165.64" xlink:href="#e"/><linearGradient id="j" x1="-865.29" y1="-1162.83" x2="-865.29" y2="-1165.05" xlink:href="#e"/><linearGradient id="k" x1="-867.49" y1="-1167.22" x2="-867.49" y2="-1168.06" xlink:href="#e"/><linearGradient id="l" x1="-845.8" y1="-1161.84" x2="-845.8" y2="-1165.05" xlink:href="#e"/><linearGradient id="m" x1="-863.14" y1="-1161.42" x2="-863.14" y2="-1162.05" xlink:href="#e"/><linearGradient id="n" x1="-868.21" y1="-1128.64" x2="-868.21" y2="-1129.44" xlink:href="#e"/><linearGradient id="o" x1="-845.23" y1="-1134.07" x2="-845.23" y2="-1136.29" xlink:href="#e"/><linearGradient id="p" x1="-847.38" y1="-1137.07" x2="-847.38" y2="-1137.7" xlink:href="#e"/><linearGradient id="q" x1="-867.49" y1="-1131.06" x2="-867.49" y2="-1131.9" xlink:href="#e"/><linearGradient id="r" x1="-843.03" y1="-1131.06" x2="-843.03" y2="-1131.9" xlink:href="#e"/><linearGradient id="s" x1="-842.31" y1="-1128.64" x2="-842.31" y2="-1129.44" xlink:href="#e"/><linearGradient id="t" x1="-864.72" y1="-1134.07" x2="-864.72" y2="-1137.28" xlink:href="#e"/><linearGradient id="u" x1="-844.16" y1="-1133.48" x2="-844.16" y2="-1134.06" xlink:href="#e"/><linearGradient id="v" x1="-866.36" y1="-1133.48" x2="-866.36" y2="-1134.06" xlink:href="#e"/><linearGradient id="w" x1="-855.26" y1="-1111.98" x2="-855.26" y2="-1187.14" gradientTransform="translate(-607.07 -797.14) rotate(-90.36) scale(1 -1)" gradientUnits="userSpaceOnUse"><stop offset="0" stop-color="#000"/><stop offset="1" stop-color="#e10d18"/></linearGradient><linearGradient id="x" x1="-843.03" y1="-1120.19" x2="-843.03" y2="-1121.04" xlink:href="#e"/><linearGradient id="y" x1="-844.16" y1="-1118.03" x2="-844.16" y2="-1118.61" xlink:href="#e"/><linearGradient id="a`" x1="-842.31" y1="-1122.65" x2="-842.31" y2="-1123.45" xlink:href="#e"/><linearGradient id="aa" x1="-868.21" y1="-1122.65" x2="-868.21" y2="-1123.45" xlink:href="#e"/><linearGradient id="ab" x1="-866.36" y1="-1118.03" x2="-866.36" y2="-1118.61" xlink:href="#e"/><linearGradient id="ac" x1="-865.29" y1="-1115.8" x2="-865.29" y2="-1118.02" xlink:href="#e"/><linearGradient id="ad" x1="-867.49" y1="-1120.19" x2="-867.49" y2="-1121.04" xlink:href="#e"/><linearGradient id="ae" x1="-845.8" y1="-1114.81" x2="-845.8" y2="-1118.02" xlink:href="#e"/><linearGradient id="af" x1="-863.14" y1="-1114.39" x2="-863.14" y2="-1115.03" xlink:href="#e"/><linearGradient id="ag" x1="-868.21" y1="-1081.61" x2="-868.21" y2="-1082.41" xlink:href="#e"/><linearGradient id="ah" x1="-845.23" y1="-1087.04" x2="-845.23" y2="-1089.26" xlink:href="#e"/><linearGradient id="ai" x1="-847.38" y1="-1090.04" x2="-847.38" y2="-1090.68" xlink:href="#e"/><linearGradient id="aj" x1="-867.49" y1="-1084.04" x2="-867.49" y2="-1084.87" xlink:href="#e"/><linearGradient id="ak" x1="-843.03" y1="-1084.04" x2="-843.03" y2="-1084.87" xlink:href="#e"/><linearGradient id="al" x1="-842.31" y1="-1081.61" x2="-842.31" y2="-1082.41" xlink:href="#e"/><linearGradient id="am" x1="-864.72" y1="-1087.04" x2="-864.72" y2="-1090.25" xlink:href="#e"/><linearGradient id="an" x1="-844.16" y1="-1086.45" x2="-844.16" y2="-1087.03" xlink:href="#e"/><linearGradient id="ao" x1="-866.36" y1="-1086.45" x2="-866.36" y2="-1087.03" xlink:href="#e"/><linearGradient id="ap" x1="-865.32" y1="-1143.07" x2="-865.32" y2="-1143.92" xlink:href="#e"/><linearGradient id="aq" x1="-866.44" y1="-1140.93" x2="-866.44" y2="-1141.51" xlink:href="#e"/><linearGradient id="ar" x1="-864.6" y1="-1145.54" x2="-864.6" y2="-1146.34" xlink:href="#e"/><linearGradient id="as" x1="-890.49" y1="-1145.54" x2="-890.49" y2="-1146.34" xlink:href="#e"/><linearGradient id="at" x1="-888.64" y1="-1140.93" x2="-888.64" y2="-1141.51" xlink:href="#e"/><linearGradient id="au" x1="-887.57" y1="-1138.69" x2="-887.57" y2="-1140.92" xlink:href="#e"/><linearGradient id="av" x1="-889.77" y1="-1143.07" x2="-889.77" y2="-1143.92" xlink:href="#e"/><linearGradient id="aw" x1="-868.09" y1="-1137.7" x2="-868.09" y2="-1140.92" xlink:href="#e"/><linearGradient id="ax" x1="-885.42" y1="-1137.28" x2="-885.42" y2="-1137.92" xlink:href="#e"/><linearGradient id="ay" x1="-890.49" y1="-1104.5" x2="-890.49" y2="-1105.3" xlink:href="#e"/><linearGradient id="b`" x1="-867.51" y1="-1109.94" x2="-867.51" y2="-1112.15" xlink:href="#e"/><linearGradient id="ba" x1="-869.66" y1="-1112.92" x2="-869.66" y2="-1113.56" xlink:href="#e"/><linearGradient id="bb" x1="-889.77" y1="-1106.92" x2="-889.77" y2="-1107.77" xlink:href="#e"/><linearGradient id="bc" x1="-865.32" y1="-1106.92" x2="-865.32" y2="-1107.77" xlink:href="#e"/><linearGradient id="bd" x1="-864.6" y1="-1104.5" x2="-864.6" y2="-1105.3" xlink:href="#e"/><linearGradient id="be" x1="-887" y1="-1109.94" x2="-887" y2="-1113.14" xlink:href="#e"/><linearGradient id="bf" x1="-866.44" y1="-1109.34" x2="-866.44" y2="-1109.92" xlink:href="#e"/><linearGradient id="bg" x1="-888.64" y1="-1109.34" x2="-888.64" y2="-1109.92" xlink:href="#e"/><linearGradient id="bh" x1="-877.54" y1="-1087.84" x2="-877.54" y2="-1163" gradientTransform="translate(-607.07 -797.14) rotate(-90.36) scale(1 -1)" gradientUnits="userSpaceOnUse"><stop offset="0" stop-color="#e10d18"/><stop offset="1" stop-color="#000"/></linearGradient><linearGradient id="bi" x1="-820.75" y1="-1143.07" x2="-820.75" y2="-1143.92" xlink:href="#e"/><linearGradient id="bj" x1="-821.87" y1="-1140.93" x2="-821.87" y2="-1141.51" xlink:href="#e"/><linearGradient id="bk" x1="-820.03" y1="-1145.54" x2="-820.03" y2="-1146.34" xlink:href="#e"/><linearGradient id="bl" x1="-845.92" y1="-1145.54" x2="-845.92" y2="-1146.34" xlink:href="#e"/><linearGradient id="bm" x1="-844.08" y1="-1140.93" x2="-844.08" y2="-1141.51" xlink:href="#e"/><linearGradient id="bn" x1="-843.01" y1="-1138.69" x2="-843.01" y2="-1140.92" xlink:href="#e"/><linearGradient id="bo" x1="-845.2" y1="-1143.07" x2="-845.2" y2="-1143.92" xlink:href="#e"/><linearGradient id="bp" x1="-823.52" y1="-1137.7" x2="-823.52" y2="-1140.92" xlink:href="#e"/><linearGradient id="bq" x1="-840.85" y1="-1137.28" x2="-840.85" y2="-1137.92" xlink:href="#e"/><linearGradient id="br" x1="-845.92" y1="-1104.5" x2="-845.92" y2="-1105.3" xlink:href="#e"/><linearGradient id="bs" x1="-822.95" y1="-1109.94" x2="-822.95" y2="-1112.15" xlink:href="#e"/><linearGradient id="bt" x1="-825.1" y1="-1112.92" x2="-825.1" y2="-1113.56" xlink:href="#e"/><linearGradient id="bu" x1="-845.2" y1="-1106.92" x2="-845.2" y2="-1107.77" xlink:href="#e"/><linearGradient id="bv" x1="-820.75" y1="-1106.92" x2="-820.75" y2="-1107.77" xlink:href="#e"/><linearGradient id="bw" x1="-820.03" y1="-1104.5" x2="-820.03" y2="-1105.3" xlink:href="#e"/><linearGradient id="bx" x1="-842.44" y1="-1109.94" x2="-842.44" y2="-1113.14" xlink:href="#e"/><linearGradient id="by" x1="-821.87" y1="-1109.34" x2="-821.87" y2="-1109.92" xlink:href="#e"/><linearGradient id="c`" x1="-844.08" y1="-1109.34" x2="-844.08" y2="-1109.92" xlink:href="#e"/><linearGradient id="ca" x1="-832.98" y1="-1087.84" x2="-832.98" y2="-1163" gradientTransform="translate(-607.07 -797.14) rotate(-90.36) scale(1 -1)" gradientUnits="userSpaceOnUse"><stop offset="0" stop-color="#e10d18"/><stop offset="1" stop-color="#000"/></linearGradient></defs><g id="a"/><g id="b"><g id="c"><text class="et" transform="translate(0 141.8)"><tspan x="0" y="0">Tecnológia e Soluções</tspan></text><g><path class="ef" d="M491.43,51.24c-.05-7.34-6.4-13.24-14.18-13.19s-14.07,6.03-14.02,13.37c.05,7.33,6.39,13.24,14.19,13.19,7.78-.05,14.06-6.03,14.01-13.37Z"/><g><g><path class="eg" d="M566.26,38.38c-.29,.11-.56,.21-.84,.33,.28-.12,.55-.23,.84-.33Z"/><path class="dk" d="M563.84,39.52c-.18,.11-.39,.2-.57,.32,.18-.12,.39-.21,.57-.32Z"/><path class="dr" d="M568.67,37.72c-.27,.05-.53,.11-.8,.17,.27-.06,.53-.13,.8-.17Z"/><path class="ee" d="M568.03,63.62c.27,.06,.54,.12,.8,.17-.27-.05-.53-.11-.8-.17Z"/><path class="e`" d="M563.41,61.73c.18,.12,.39,.21,.57,.32-.18-.1-.39-.2-.57-.32Z"/><path class="ev" d="M561.16,59.93l2.23,1.79c-.82-.52-1.55-1.13-2.23-1.79Z"/><path class="fd" d="M565.57,62.84c.28,.12,.56,.21,.85,.31-.29-.1-.57-.2-.85-.31Z"/><path class="cn" d="M560.06,42.82c.9-1.14,1.96-2.15,3.19-2.96l-2.22,1.85c-.35,.35-.66,.73-.97,1.12Z"/><path class="da" d="M560.38,59.05c-.21-.25-.44-.47-.63-.73h0c.19,.26,.42,.48,.63,.73Z"/><path class="eq" d="M527,64.05c.27-.05,.53-.11,.8-.18-.27,.07-.52,.13-.8,.18Z"/><path class="ew" d="M534.5,41.84l-2.22-1.78c.81,.51,1.55,1.13,2.22,1.78Z"/><path class="dq" d="M535.29,42.72c.21,.25,.45,.47,.64,.73,0,0,0,0,0,0-.19-.26-.42-.47-.63-.72Z"/><path class="fa" d="M529.41,63.39c.29-.11,.57-.21,.84-.33-.27,.12-.56,.22-.84,.33Z"/><path class="ci" d="M530.1,38.93c-.27-.12-.56-.22-.85-.32,.29,.1,.58,.2,.85,.32Z"/><path class="en" d="M527.63,38.15c-.26-.06-.52-.12-.8-.16,.27,.04,.53,.11,.8,.16Z"/><path class="cc" d="M535.61,58.95c-.9,1.14-1.96,2.15-3.19,2.96l2.23-1.85c.35-.35,.65-.73,.96-1.11Z"/><path class="ct" d="M532.26,40.04c-.18-.12-.39-.21-.58-.32,.2,.11,.4,.2,.58,.32Z"/><path class="cw" d="M531.82,62.25c.2-.11,.4-.2,.58-.32-.18,.12-.38,.22-.58,.32Z"/><path class="es" d="M571.39,64.02c-.88,0-1.73-.09-2.56-.23-.27-.05-.53-.11-.8-.17-.55-.13-1.09-.28-1.62-.46-.29-.1-.57-.2-.85-.31-.55-.23-1.07-.5-1.58-.79-.18-.1-.39-.2-.57-.32h-.02l-2.23-1.8h0c-.28-.28-.51-.59-.78-.88-.21-.25-.44-.47-.63-.73h0c-6.35-6.26-17.55-6.16-23.79,.22-.1,.15-.24,.27-.35,.41-.31,.38-.61,.76-.96,1.11l-2.23,1.85h-.02c-.18,.14-.38,.23-.58,.34-.5,.3-1.02,.57-1.57,.81-.27,.12-.56,.22-.84,.33-.52,.19-1.06,.35-1.62,.48-.26,.07-.52,.13-.8,.18-.83,.15-1.68,.26-2.56,.26-7.79,.05-14.15-5.86-14.19-13.19-.05-7.34,6.24-13.32,14.03-13.37,.87,0,1.73,.09,2.56,.23,.27,.04,.54,.11,.8,.16,.56,.14,1.1,.29,1.62,.46,.29,.1,.58,.2,.85,.32,.55,.23,1.08,.5,1.58,.79,.2,.11,.4,.2,.58,.32h0l.02,.02,2.22,1.78h.01c.27,.28,.52,.59,.78,.88,.21,.25,.44,.46,.63,.72,0,0,0,0,0,0,6.35,6.26,17.54,6.16,23.78-.22,.1-.14,.24-.26,.35-.4,.31-.39,.62-.76,.97-1.12l2.22-1.85,.02-.02h0c.18-.12,.39-.21,.57-.32,.51-.3,1.03-.57,1.57-.81,.28-.12,.55-.23,.84-.33,.52-.19,1.07-.34,1.61-.48,.27-.06,.53-.13,.8-.17,.83-.15,1.68-.26,2.56-.26,7.79-.05,14.14,5.85,14.19,13.19,.05,7.33-6.23,13.32-14.02,13.37Z"/></g><g><path class="ek" d="M519.23,38.68c-.29,.11-.57,.21-.85,.33,.28-.12,.55-.23,.85-.33Z"/><path class="cm" d="M516.82,39.82c-.19,.11-.39,.2-.58,.32,.19-.12,.39-.21,.58-.32Z"/><path class="cy" d="M521.64,38.02c-.27,.05-.53,.11-.8,.17,.27-.06,.53-.13,.8-.17Z"/><path class="em" d="M521,63.92c.27,.06,.53,.12,.8,.17-.27-.05-.53-.11-.8-.17Z"/><path class="du" d="M516.37,62.02c.19,.12,.4,.21,.58,.32-.19-.1-.39-.2-.58-.32Z"/><path class="er" d="M514.13,60.23l2.23,1.79c-.82-.52-1.55-1.13-2.23-1.79Z"/><path class="dt" d="M518.54,63.14c.28,.12,.56,.21,.85,.31-.29-.1-.57-.2-.85-.31Z"/><path class="dm" d="M513.03,43.12c.91-1.14,1.96-2.15,3.19-2.96l-2.23,1.85c-.35,.35-.66,.73-.97,1.12Z"/><path class="cq" d="M513.35,59.35c-.21-.25-.44-.47-.64-.73h0c.19,.26,.43,.48,.64,.73Z"/><path class="fb" d="M479.97,64.35c.27-.05,.54-.11,.8-.18-.27,.07-.53,.13-.8,.18Z"/><path class="cu" d="M487.48,42.13l-2.23-1.78c.82,.51,1.55,1.13,2.23,1.78Z"/><path class="ck" d="M488.26,43.02c.21,.25,.45,.47,.64,.73,0,0-.01,0-.01,0-.19-.26-.42-.47-.63-.72Z"/><path class="eb" d="M482.39,63.68c.28-.11,.57-.21,.84-.32-.27,.12-.55,.22-.84,.32Z"/><path class="dv" d="M483.07,39.23c-.27-.12-.56-.22-.84-.32,.28,.1,.57,.2,.84,.32Z"/><path class="eu" d="M480.6,38.44c-.26-.06-.53-.12-.8-.16,.27,.04,.53,.11,.8,.16Z"/><path class="ei" d="M488.58,59.25c-.9,1.14-1.96,2.15-3.19,2.96l2.23-1.85c.34-.35,.65-.73,.96-1.11Z"/><path class="ex" d="M485.23,40.34c-.18-.12-.38-.21-.58-.32,.2,.11,.41,.2,.58,.32Z"/><path class="df" d="M484.79,62.54c.2-.11,.4-.2,.58-.32-.18,.12-.38,.22-.58,.32Z"/></g></g><g><g><path class="ch" d="M542.25,60.81c-.29,.11-.57,.2-.85,.33,.28-.13,.56-.23,.85-.33Z"/><path class="cs" d="M539.85,61.95c-.19,.11-.4,.2-.57,.32,.18-.12,.38-.21,.57-.32Z"/><path class="ec" d="M544.67,60.16c-.27,.05-.53,.11-.8,.17,.27-.06,.53-.13,.8-.17Z"/><path class="d`" d="M544.03,86.06c.27,.06,.54,.12,.8,.16-.27-.05-.54-.11-.8-.16Z"/><path class="el" d="M539.41,84.16c.18,.12,.38,.22,.58,.32-.19-.1-.4-.19-.58-.32Z"/><path class="dw" d="M537.16,82.36l2.23,1.79c-.82-.52-1.55-1.13-2.23-1.79Z"/><path class="cx" d="M541.56,85.28c.28,.12,.56,.21,.85,.32-.29-.11-.57-.2-.85-.32Z"/><path class="dc" d="M536.07,65.26c.9-1.14,1.95-2.15,3.19-2.96l-2.24,1.85c-.35,.35-.65,.73-.96,1.12Z"/><path class="f`" d="M536.38,81.49c-.21-.25-.45-.47-.64-.73h0c.19,.26,.43,.48,.64,.73Z"/><path class="fc" d="M503,86.48c.28-.05,.53-.11,.8-.17-.27,.06-.52,.12-.8,.17Z"/><path class="cv" d="M510.51,64.27l-2.22-1.78c.81,.52,1.54,1.13,2.22,1.78Z"/><path class="de" d="M511.28,65.16c.22,.25,.45,.47,.64,.73h0c-.19-.26-.43-.48-.64-.73Z"/><path class="ds" d="M505.41,85.83c.29-.11,.58-.21,.85-.33-.27,.12-.55,.22-.85,.33Z"/><path class="ea" d="M506.1,61.37c-.27-.12-.56-.22-.85-.32,.29,.1,.58,.2,.85,.32Z"/><path class="dj" d="M503.64,60.58c-.27-.06-.53-.12-.8-.16,.28,.04,.53,.1,.8,.16Z"/><path class="cb" d="M511.6,81.39c-.9,1.14-1.96,2.15-3.18,2.96l2.23-1.85c.34-.35,.65-.73,.96-1.11Z"/><path class="dx" d="M508.26,62.47c-.18-.12-.39-.21-.58-.31,.19,.11,.39,.2,.58,.31Z"/><path class="dl" d="M507.82,84.68c.19-.1,.39-.2,.58-.32-.18,.13-.39,.22-.58,.32Z"/><path class="db" d="M547.4,86.45c-.89,0-1.73-.09-2.57-.23-.27-.05-.54-.11-.8-.16-.56-.13-1.09-.29-1.62-.46-.29-.11-.57-.2-.85-.32-.54-.23-1.07-.5-1.57-.8-.19-.1-.4-.19-.58-.32h-.02l-2.23-1.8h0c-.28-.28-.52-.59-.78-.88-.21-.25-.45-.47-.64-.73h0c-6.35-6.26-17.54-6.16-23.78,.22-.11,.15-.25,.27-.36,.41-.31,.38-.61,.76-.96,1.11l-2.23,1.85h-.02c-.18,.14-.39,.23-.58,.33-.51,.3-1.02,.58-1.57,.82-.27,.12-.55,.22-.85,.33-.52,.18-1.06,.34-1.61,.48-.27,.06-.52,.12-.8,.17-.84,.15-1.68,.26-2.55,.26-7.79,.05-14.14-5.86-14.19-13.19-.05-7.34,6.23-13.32,14.02-13.37,.88,0,1.72,.09,2.56,.23,.28,.04,.53,.1,.8,.16,.55,.14,1.09,.28,1.62,.46,.29,.1,.58,.2,.85,.32,.55,.23,1.07,.5,1.58,.79,.19,.11,.39,.2,.58,.31h0l.02,.02,2.22,1.78h0c.28,.29,.52,.59,.78,.88,.22,.25,.45,.46,.64,.72h0c6.35,6.26,17.55,6.17,23.78-.22,.11-.15,.25-.26,.36-.4,.31-.38,.61-.76,.96-1.12l2.24-1.85v-.02h.02c.18-.12,.38-.21,.57-.32,.5-.3,1.02-.57,1.56-.81,.28-.13,.56-.23,.85-.33,.53-.19,1.06-.34,1.62-.48,.27-.06,.53-.13,.8-.17,.83-.15,1.67-.26,2.56-.26,7.78-.05,14.13,5.85,14.18,13.19,.05,7.33-6.23,13.32-14.01,13.37Z"/></g><g><path class="dn" d="M541.98,16.25c-.29,.11-.57,.21-.85,.33,.28-.12,.56-.22,.85-.33Z"/><path class="di" d="M539.57,17.39c-.19,.11-.4,.2-.57,.32,.18-.12,.38-.21,.57-.32Z"/><path class="cj" d="M544.39,15.59c-.27,.05-.53,.11-.8,.17,.27-.06,.53-.13,.8-.17Z"/><path class="co" d="M543.75,41.49c.27,.06,.54,.12,.8,.17-.27-.05-.53-.11-.8-.17Z"/><path class="dd" d="M539.13,39.6c.18,.12,.38,.21,.58,.32-.19-.1-.4-.2-.58-.32Z"/><path class="ep" d="M536.88,37.8l2.23,1.79c-.82-.52-1.55-1.13-2.23-1.79Z"/><path class="do" d="M541.28,40.71c.28,.12,.56,.21,.85,.32-.29-.1-.57-.2-.85-.32Z"/><path class="cp" d="M535.79,20.69c.9-1.14,1.96-2.15,3.19-2.96l-2.24,1.85c-.35,.35-.65,.73-.96,1.12Z"/><path class="ce" d="M536.1,36.92c-.21-.24-.45-.47-.64-.72h0c.19,.26,.43,.48,.64,.72Z"/><path class="cr" d="M502.72,41.92c.28-.05,.53-.11,.8-.18-.27,.07-.52,.13-.8,.18Z"/><path class="fe" d="M510.23,19.71l-2.22-1.78c.81,.51,1.54,1.13,2.22,1.78Z"/><path class="ey" d="M511,20.59c.22,.25,.45,.47,.64,.73h0c-.19-.27-.42-.48-.64-.73Z"/><path class="cd" d="M505.13,41.26c.29-.11,.58-.21,.85-.33-.27,.12-.55,.22-.85,.33Z"/><path class="ed" d="M505.83,16.8c-.27-.12-.56-.22-.85-.32,.29,.1,.58,.2,.85,.32Z"/><path class="ej" d="M503.36,16.02c-.27-.06-.53-.12-.8-.16,.28,.04,.54,.11,.8,.16Z"/><path class="eo" d="M511.32,36.82c-.9,1.14-1.96,2.15-3.18,2.96l2.23-1.85c.34-.35,.65-.73,.96-1.11Z"/><path class="eh" d="M507.98,17.91c-.18-.12-.39-.21-.58-.32,.19,.11,.39,.2,.58,.32Z"/><path class="dy" d="M507.54,40.12c.19-.11,.39-.2,.58-.32-.18,.12-.39,.22-.58,.32Z"/><path class="cg" d="M547.12,41.89c-.89,0-1.73-.09-2.57-.23-.27-.05-.54-.11-.8-.17-.56-.13-1.09-.28-1.62-.46-.29-.1-.57-.2-.85-.32-.54-.23-1.07-.5-1.57-.79-.19-.1-.4-.2-.58-.32h-.02l-2.23-1.8h0c-.28-.28-.52-.59-.78-.88-.21-.24-.45-.46-.64-.72h0c-6.35-6.26-17.54-6.16-23.78,.22-.11,.15-.25,.27-.36,.41-.31,.38-.61,.76-.96,1.11l-2.23,1.85h-.02c-.18,.14-.39,.23-.58,.34-.51,.3-1.02,.57-1.57,.81-.27,.12-.55,.22-.85,.33-.52,.19-1.06,.35-1.61,.48-.27,.07-.52,.13-.8,.18-.83,.15-1.68,.26-2.55,.26-7.79,.05-14.14-5.86-14.19-13.19-.05-7.34,6.23-13.32,14.02-13.37,.88,0,1.73,.09,2.56,.23,.28,.04,.54,.11,.8,.16,.55,.13,1.09,.28,1.62,.46,.29,.1,.58,.2,.85,.32,.55,.23,1.07,.5,1.58,.79,.19,.11,.39,.2,.58,.32h0l.02,.02,2.22,1.78h0c.28,.28,.52,.59,.78,.88,.22,.25,.45,.46,.64,.72h0c6.35,6.26,17.55,6.16,23.78-.21,.11-.15,.25-.27,.36-.41,.31-.39,.61-.76,.96-1.12l2.24-1.85v-.02h.02c.18-.12,.38-.21,.57-.32,.5-.3,1.02-.57,1.56-.81,.28-.12,.56-.22,.85-.33,.53-.19,1.06-.35,1.62-.48,.27-.06,.53-.13,.8-.17,.83-.15,1.67-.26,2.56-.26,7.78-.05,14.13,5.85,14.18,13.19,.05,7.33-6.23,13.32-14.01,13.37Z"/></g></g><g><circle class="cf" cx="477.59" cy="51.61" r="6.05"/><circle class="dg" cx="477.59" cy="51.61" r="1.58"/></g><g><circle class="cf" cx="500.69" cy="73.34" r="6.05"/><circle class="dg" cx="500.69" cy="73.34" r="1.58"/></g><g><circle class="cf" cx="500.41" cy="28.53" r="6.05"/><circle class="dg" cx="500.41" cy="28.53" r="1.58"/></g><g><circle class="cf" cx="523.69" cy="51.04" r="6.05"/><circle class="dp" cx="571.95" cy="50.74" r="2.55"/><circle class="cf" cx="548.15" cy="72.63" r="2.55"/><circle class="cf" cx="547.87" cy="28.68" r="2.55"/><circle class="dg" cx="523.69" cy="51.04" r="1.58"/></g></g><line class="cl" x1="1.77" y1="102.44" x2="1045.56" y2="102.44"/><g><path class="dh" d="M88.33,10.65l-6.79,13.58c-.63,1.26-1.92,2.05-3.32,2.05h-20.25c-2.05,0-3.71,1.66-3.71,3.71v37.45c0,10.18-5.75,19.48-14.85,24.03l-4.12,2.06c-.94,.47-2.04-.21-2.04-1.26V29.99c0-2.05-1.66-3.71-3.71-3.71H5.45c-2.05,0-3.71-1.66-3.71-3.71V8.99c0-2.05,1.66-3.71,3.71-3.71H85.01c2.76,0,4.56,2.91,3.32,5.37Z"/><path class="dh" d="M207.06,5.27l-5.82,11.64c-2.87,5.74-8.73,9.36-15.15,9.36H117.78V5.27h89.28Zm0,31.51l-5.82,11.64c-2.87,5.74-8.73,9.36-15.15,9.36H117.78v-21.01h89.28Zm0,31.51l-5.82,11.64c-2.87,5.74-8.73,9.36-15.15,9.36H117.78v-21.01h89.28Z"/><path class="dh" d="M246.11,80.58l-2.56-2.56c-6.23-6.23-9.73-14.68-9.73-23.49v-20.35c0-15.97,12.95-28.91,28.91-28.91h43.37c7.81,0,12.89,8.22,9.39,15.2h0c-1.78,3.56-5.42,5.81-9.39,5.81h-40.77c-5.8,0-10.5,4.7-10.5,10.5v16.66c0,2.79,1.11,5.46,3.08,7.43l4.35,4.35c1.97,1.97,4.64,3.08,7.43,3.08h37.66c5.8,0,10.5,4.7,10.5,10.5h0c0,5.8-4.7,10.5-10.5,10.5h-40.18c-7.9,0-15.47-3.14-21.05-8.72Z"/><path d="M353.66,5.25h13.51c2.07,0,3.75,1.68,3.75,3.75v27.77h42.03v-8.84c0-10.68,6.03-20.44,15.59-25.22l5.43-2.71V85.57c0,2.07-1.68,3.75-3.75,3.75h-13.51c-2.07,0-3.75-1.68-3.75-3.75v-27.77h-42.03v9.11c0,10.51-5.94,20.12-15.34,24.83l-5.67,2.84V9.01c0-2.07,1.68-3.75,3.75-3.75Z"/><path class="dh" d="M640.44,27.82h0c-3.31,3.31-.97,8.97,3.71,8.97h28.48c12.07,0,21.86,9.79,21.86,21.86h0c0,6.18-2.45,12.1-6.82,16.47l-3.83,3.83c-6.63,6.63-15.62,10.36-25,10.36h-53.63l9.05-18.1c.89-1.78,2.71-2.9,4.7-2.9h41.84c1.39,0,2.73-.55,3.71-1.54h0c3.31-3.31,.97-8.97-3.71-8.97h-31.6c-10.35,0-18.74-8.39-18.74-18.74v-3.78c0-5.75,2.28-11.27,6.35-15.33l1.94-1.94c8.14-8.14,19.19-12.72,30.71-12.72h50.28l-9.05,18.1c-.89,1.78-2.71,2.9-4.7,2.9h-41.84c-1.39,0-2.73,.55-3.71,1.54Z"/><path class="dh" d="M805.29,73.54l-10.5,10.5c-3.36,3.36-7.92,5.25-12.68,5.25h-18.29c-20.6,0-37.31-16.7-37.31-37.31v-19.36c0-4.07,1.62-7.97,4.49-10.84l11.26-11.26c3.36-3.36,7.92-5.25,12.68-5.25h21.6c18.78,0,34,15.22,34,34v21.6c0,4.76-1.89,9.32-5.25,12.68Zm-21.01-10.5h0c3.36-3.36,5.25-7.92,5.25-12.68v-6.15c0-9.9-8.03-17.93-17.93-17.93h-6.15c-4.76,0-9.32,1.89-12.68,5.25h0c-3.36,3.36-5.25,7.92-5.25,12.68v6.15c0,9.9,8.03,17.93,17.93,17.93h6.15c4.76,0,9.32-1.89,12.68-5.25Z"/><path class="dh" d="M937.09,5.27l-4.72,9.44c-3.55,7.09-10.79,11.57-18.72,11.57h-46.37c-2.05,0-3.71,1.66-3.71,3.71v3.08c0,2.05,1.66,3.71,3.71,3.71h59.31l-4.72,9.44c-3.55,7.09-10.79,11.57-18.72,11.57h-35.87c-2.05,0-3.71,1.66-3.71,3.71v22.54l-21.01,10.5V5.27h94.53Z"/><path class="dh" d="M1045.19,10.65l-6.79,13.58c-.63,1.26-1.92,2.05-3.32,2.05h-20.25c-2.05,0-3.71,1.66-3.71,3.71v40.59c0,8.25-4.66,15.79-12.04,19.48l-6.57,3.28c-1.1,.55-2.4-.25-2.4-1.48V29.99c0-2.05-1.66-3.71-3.71-3.71h-24.08c-2.05,0-3.71-1.66-3.71-3.71V8.99c0-2.05,1.66-3.71,3.71-3.71h79.56c2.76,0,4.56,2.91,3.32,5.37Z"/></g></g></g></svg>